Coordinates
version=1
nRows=24
nColumns=22
inDegrees=yes

Units are S.I. units (second, meters, Newtons, ...)
If the header above contains a line with 'inDegrees', this indicates whether rotational values are in degrees (yes) or radians (no).

endheader
time	pelvis_tilt	pelvis_list	pelvis_rotation	pelvis_tx	pelvis_ty	pelvis_tz	hip_flexion_r	hip_adduction_r	hip_rotation_r	knee_angle_r	ankle_angle_r	subtalar_angle_r	hip_flexion_l	hip_adduction_l	hip_rotation_l	knee_angle_l	ankle_angle_l	subtalar_angle_l	lumbar_extension	lumbar_bending	lumbar_rotation
      0.01000000	     -4.29481326	     -7.28363568	     -2.84033941	     -1.09892876	      0.97751870	      0.07794959	      7.54373356	      9.62281707	     -2.62858800	    -15.34620685	      9.30893092	     -0.43709193	      4.93989147	     -7.60024615	      4.44439183	    -10.60650732	     12.26362701	     -2.07800979	      2.56217468	      5.98277760	     -8.92874751
      0.02000000	     -4.29589355	     -7.28535158	     -2.81926052	     -1.09889954	      0.97751772	      0.07791766	      7.54706333	      9.62289220	     -2.63318721	    -15.35048247	      9.30738392	     -0.42164387	      4.93546615	     -7.60060915	      4.45673724	    -10.59020676	     12.26547167	     -2.08605713	      2.56768977	      5.99235252	     -8.88186708
      0.03000000	     -4.29411193	     -7.28410820	     -2.79055875	     -1.09887096	      0.97752113	      0.07786761	      7.54745142	      9.61910197	     -2.62923621	    -15.35453569	      9.30749868	     -0.42051573	      4.93581288	     -7.59697262	      4.45433165	    -10.58321870	     12.26549505	     -2.08683105	      2.57013453	      6.00188187	     -8.87017388
      0.04000000	     -4.28329614	     -7.27739626	     -2.74367860	     -1.09882391	      0.97753763	      0.07781704	      7.54166179	      9.60584575	     -2.67340949	    -15.36406810	      9.32309527	     -0.39617453	      4.90394366	     -7.58682110	      4.52692996	    -10.53434447	     12.24452717	     -2.09949554	      2.56458742	      5.99738868	     -8.83288127
      0.05000000	     -4.27908538	     -7.27279810	     -2.70562433	     -1.09877718	      0.97754516	      0.07776528	      7.53168457	      9.59720878	     -2.68887389	    -15.35445258	      9.33038512	     -0.39132915	      4.90149617	     -7.57930654	      4.54668977	    -10.52865205	     12.23599458	     -2.10265120	      2.56680148	      6.00062716	     -8.79994468
      0.06000000	     -4.27302276	     -7.26546293	     -2.66432571	     -1.09873359	      0.97755731	      0.07771253	      7.52498348	      9.58516085	     -2.71331788	    -15.35373030	      9.33799018	     -0.38594960	      4.88844305	     -7.56858978	      4.58913926	    -10.50679871	     12.22175396	     -2.10425697	      2.56583698	      5.99951617	     -8.76992640
      0.07000000	     -4.26592396	     -7.25488819	     -2.62039105	     -1.09868458	      0.97757040	      0.07765266	      7.51649664	      9.56865382	     -2.74416728	    -15.35235852	      9.34586601	     -0.37961390	      4.87133190	     -7.55400226	      4.63435093	    -10.47872111	     12.20303498	     -2.10570285	      2.56280902	      5.99473225	     -8.75158084
      0.08000000	     -4.25899224	     -7.24562353	     -2.57831399	     -1.09863801	      0.97758297	      0.07759507	      7.50767805	      9.55359282	     -2.77151326	    -15.35016697	      9.35179727	     -0.37295267	      4.85645285	     -7.54077000	      4.67168966	    -10.45405301	     12.18765852	     -2.10737828	      2.55835448	      5.99117674	     -8.73512612
      0.09000000	     -4.25457459	     -7.23866084	     -2.53991988	     -1.09859377	      0.97759279	      0.07754403	      7.50033135	      9.54202237	     -2.79407500	    -15.34629081	      9.35574566	     -0.36695676	      4.84394749	     -7.53088939	      4.70135166	    -10.42973227	     12.17629915	     -2.10836540	      2.55526124	      5.98984373	     -8.71719866
      0.10000000	     -4.24994956	     -7.23205580	     -2.50090974	     -1.09855557	      0.97760405	      0.07749299	      7.49244876	      9.53081549	     -2.81764949	    -15.34059559	      9.35895708	     -0.36056078	      4.82998923	     -7.52150399	      4.73332020	    -10.40170098	     12.16384807	     -2.10874494	      2.55041376	      5.98858461	     -8.70008735
      0.11000000	     -4.24650747	     -7.22683928	     -2.46266599	     -1.09851497	      0.97761257	      0.07743939	      7.48397063	      9.52114547	     -2.83815922	    -15.33255801	      9.36221798	     -0.35536746	      4.81811490	     -7.51341785	      4.75998098	    -10.37475780	     12.15302509	     -2.10888785	      2.54632716	      5.98955373	     -8.68369411
      0.12000000	     -4.24366332	     -7.22193724	     -2.42420939	     -1.09848134	      0.97762265	      0.07738382	      7.47554749	      9.51153849	     -2.85946268	    -15.32231936	      9.36589418	     -0.35066399	      4.80582660	     -7.50541685	      4.78876285	    -10.34571615	     12.14115853	     -2.10874041	      2.54087924	      5.99050177	     -8.66758283
      0.13000000	     -4.24248370	     -7.21685302	     -2.38644926	     -1.09845376	      0.97762973	      0.07732599	      7.46783176	      9.50175248	     -2.88006729	    -15.30976450	      9.37043236	     -0.34686647	      4.79623926	     -7.49725731	      4.81487342	    -10.31743099	     12.12958415	     -2.10857329	      2.53559432	      5.99229161	     -8.65152086
      0.14000000	     -4.24166800	     -7.21048703	     -2.34724330	     -1.09842316	      0.97763537	      0.07726081	      7.45986955	      9.49004512	     -2.90419951	    -15.29659279	      9.37528501	     -0.34247605	      4.78493647	     -7.48703571	      4.84623441	    -10.28603241	     12.11479664	     -2.10833581	      2.53051007	      5.99331319	     -8.63680962
      0.15000000	     -4.24537429	     -7.20808555	     -2.32202137	     -1.09843351	      0.97763416	      0.07720634	      7.46310797	      9.48489045	     -2.90275960	    -15.29364012	      9.37589590	     -0.34227749	      4.79002605	     -7.48208208	      4.84353572	    -10.27406238	     12.11438049	     -2.10840511	      2.52090964	      6.00315434	     -8.62848355
      0.16000000	     -4.24658958	     -7.19282836	     -2.27286676	     -1.09839091	      0.97764378	      0.07713152	      7.45541300	      9.46077020	     -2.95530510	    -15.27553474	      9.38161888	     -0.33221124	      4.76690480	     -7.46187617	      4.91273884	    -10.21607782	     12.07653353	     -2.10538110	      2.51910870	      5.99150634	     -8.61558576
      0.17000000	     -4.25246895	     -7.18921578	     -2.24290162	     -1.09837731	      0.97764103	      0.07708282	      7.45479141	      9.45419714	     -2.96553853	    -15.26326514	      9.38496248	     -0.33057994	      4.77122676	     -7.45665539	      4.91427951	    -10.20097610	     12.07311203	     -2.10563452	      2.51482749	      5.99541911	     -8.59686037
      0.18000000	     -4.26460057	     -7.17889187	     -2.21807607	     -1.09835064	      0.97763646	      0.07702017	      7.45397846	      9.43687697	     -3.00358415	    -15.23742408	      9.38929412	     -0.32522798	      4.76820020	     -7.44300123	      4.94115484	    -10.16509524	     12.05483795	     -2.10326472	      2.51614707	      5.99548740	     -8.56971275
      0.19000000	     -4.26984698	     -7.16168346	     -2.17937043	     -1.09831921	      0.97764219	      0.07693101	      7.45820260	      9.40987919	     -3.04268036	    -15.23397464	      9.39184890	     -0.31356140	      4.75330514	     -7.41978322	      4.98750038	    -10.11655096	     12.01962436	     -2.09930414	      2.51273740	      5.98750761	     -8.57385972
      0.20000000	     -4.28088524	     -7.15504119	     -2.15613161	     -1.09829808	      0.97763599	      0.07689049	      7.45915236	      9.39945115	     -3.06550547	    -15.21476375	      9.39661696	     -0.30941778	      4.75548169	     -7.41206090	      4.99612488	    -10.09094437	     12.01150563	     -2.09819224	      2.50912980	      5.98599195	     -8.55855030
      0.21000000	     -4.29313767	     -7.14481788	     -2.13102821	     -1.09826015	      0.97763274	      0.07683366	      7.46302365	      9.38350224	     -3.09514788	    -15.19927431	      9.39699662	     -0.30348694	      4.75053537	     -7.39908120	      5.01798517	    -10.05206134	     11.99214919	     -2.09342142	      2.50944553	      5.98219197	     -8.54929420
      0.22000000	     -4.30413014	     -7.13553951	     -2.10610433	     -1.09822595	      0.97763084	      0.07678313	      7.46575577	      9.36899057	     -3.12053044	    -15.18479028	      9.39700191	     -0.29839496	      4.74830617	     -7.38786989	      5.03733383	    -10.01952243	     11.97432600	     -2.08816848	      2.50615589	      5.97723051	     -8.54355908
      0.23000000	     -4.31216882	     -7.13363928	     -2.09184533	     -1.09821433	      0.97762742	      0.07673928	      7.47031611	      9.36466698	     -3.12147005	    -15.17948635	      9.39719910	     -0.29811667	      4.75356299	     -7.38408388	      5.03535403	    -10.00869550	     11.97370948	     -2.08773802	      2.49267874	      5.98344251	     -8.53933382
      0.24000000	     -4.32994886	     -7.12483450	     -2.06774114	     -1.09814631	      0.97762037	      0.07669348	      7.46990137	      9.35006846	     -3.16065665	    -15.14846001	      9.39312658	     -0.29424691	      4.75207305	     -7.37409758	      5.05569996	     -9.96921589	     11.95492792	     -2.08101130	      2.50004665	      5.97588265	     -8.52040790
